<?xml version="1.0" encoding="utf-8"?>
<!-- Generator: Adobe Illustrator 27.6.1, SVG Export Plug-In . SVG Version: 6.00 Build 0)  -->
<svg version="1.1" id="Layer_1" xmlns="http://www.w3.org/2000/svg" xmlns:xlink="http://www.w3.org/1999/xlink" x="0px" y="0px"
	 viewBox="0 0 500 500" style="enable-background:new 0 0 500 500;" xml:space="preserve">
<style type="text/css">
	.st0{fill:#009247;}
	.st1{fill:#FFFFFF;}
</style>
<g>
	<circle class="st0" cx="250.3" cy="250.2" r="213.7"/>
	<g>
		<g>
			<path class="st1" d="M250.3,139.9c35.9,0,40.2,0.1,54.4,0.8c13.1,0.6,20.2,2.8,25,4.6c6.3,2.4,10.8,5.4,15.5,10.1
				c4.7,4.7,7.6,9.2,10.1,15.5c1.8,4.7,4,11.9,4.6,25c0.6,14.2,0.8,18.4,0.8,54.4s-0.1,40.2-0.8,54.4c-0.6,13.1-2.8,20.2-4.6,25
				c-2.4,6.3-5.4,10.8-10.1,15.5c-4.7,4.7-9.2,7.6-15.5,10.1c-4.7,1.8-11.9,4-25,4.6c-14.2,0.6-18.4,0.8-54.4,0.8
				c-35.9,0-40.2-0.1-54.4-0.8c-13.1-0.6-20.2-2.8-25-4.6c-6.3-2.4-10.8-5.4-15.5-10.1c-4.7-4.7-7.6-9.2-10.1-15.5
				c-1.8-4.7-4-11.9-4.6-25c-0.6-14.2-0.8-18.4-0.8-54.4s0.1-40.2,0.8-54.4c0.6-13.1,2.8-20.2,4.6-25c2.4-6.3,5.4-10.8,10.1-15.5
				c4.7-4.7,9.2-7.6,15.5-10.1c4.7-1.8,11.9-4,25-4.6C210.1,140,214.3,139.9,250.3,139.9 M250.3,115.6c-36.5,0-41.1,0.2-55.5,0.8
				c-14.3,0.7-24.1,2.9-32.7,6.3c-8.8,3.4-16.4,8-23.8,15.5c-7.5,7.5-12.1,15-15.5,23.8c-3.3,8.6-5.6,18.3-6.3,32.7
				c-0.7,14.4-0.8,18.9-0.8,55.5c0,36.5,0.2,41.1,0.8,55.5c0.7,14.3,2.9,24.1,6.3,32.7c3.4,8.8,8,16.4,15.5,23.8
				c7.5,7.5,15,12.1,23.8,15.5c8.6,3.3,18.3,5.6,32.7,6.3c14.4,0.7,18.9,0.8,55.5,0.8c36.5,0,41.1-0.2,55.5-0.8
				c14.3-0.7,24.1-2.9,32.7-6.3c8.8-3.4,16.4-8,23.8-15.5c7.5-7.5,12.1-15,15.5-23.8c3.3-8.6,5.6-18.3,6.3-32.7
				c0.7-14.4,0.8-18.9,0.8-55.5s-0.2-41.1-0.8-55.5c-0.7-14.3-2.9-24.1-6.3-32.7c-3.4-8.8-8-16.4-15.5-23.8
				c-7.5-7.5-15-12.1-23.8-15.5c-8.6-3.3-18.3-5.6-32.7-6.3C291.4,115.8,286.8,115.6,250.3,115.6L250.3,115.6z"/>
			<path class="st1" d="M250.3,181.1c-38.2,0-69.1,30.9-69.1,69.1s30.9,69.1,69.1,69.1c38.2,0,69.1-30.9,69.1-69.1
				S288.4,181.1,250.3,181.1z M250.3,295.1c-24.8,0-44.9-20.1-44.9-44.9s20.1-44.9,44.9-44.9s44.9,20.1,44.9,44.9
				S275,295.1,250.3,295.1z"/>
			<circle class="st1" cx="322.1" cy="178.4" r="16.1"/>
		</g>
	</g>
</g>
</svg>
