<svg xml:space="preserve" style="width: 100%; max-height: 500px" viewBox="0 77.65968992248061 1092.6 203.44651162790694" y="0px" x="0px" xmlns:xlink="http://www.w3.org/1999/xlink" xmlns="http://www.w3.org/2000/svg" id="Layer_1" version="1.1" width="1092.6" height="203.44651162790694">
<style type="text/css">
	.st0{fill:#009548;}
</style>
<g>
	<path d="M0,81.2h54.5l50.9,139.3h0.8l50.4-139.3h54.8v196h-34.6V119.7h-0.6l-59.5,157.6H92.5L33.8,119.7h-0.6v157.6H0&#xA;&#9;&#9;V81.2z" class="st0"/>
	<path d="M316.2,81.2h30.2l84.5,196H391l-18.3-44.9h-85L270,277.2h-39L316.2,81.2z M360.5,202.5l-30.2-79.7l-30.7,79.7&#xA;&#9;&#9;H360.5z" class="st0"/>
	<path d="M586.7,127.1c-5.2-7-11.9-12.1-20.2-15.4c-8.3-3.2-16.4-4.8-24.4-4.8c-10.2,0-19.4,1.8-27.7,5.5&#xA;&#9;&#9;c-8.3,3.7-15.5,8.8-21.5,15.2c-6,6.5-10.6,14-13.8,22.7c-3.2,8.7-4.8,18.1-4.8,28.2c0,10.7,1.6,20.5,4.7,29.3&#xA;&#9;&#9;c3.1,8.9,7.6,16.5,13.4,22.8c5.8,6.4,12.8,11.3,20.9,14.8c8.1,3.5,17.3,5.3,27.4,5.3c10.5,0,19.8-2.1,28-6.2&#xA;&#9;&#9;c8.1-4.2,14.7-9.6,19.7-16.5l28,19.7c-8.7,10.9-19.3,19.3-31.8,25.3c-12.6,6-27.2,9-44,9c-15.3,0-29.4-2.5-42.2-7.6&#xA;&#9;&#9;c-12.8-5.1-23.9-12.2-33.1-21.3c-9.2-9.1-16.4-20-21.6-32.7c-5.2-12.6-7.8-26.6-7.8-41.9c0-15.7,2.7-29.9,8.2-42.5&#xA;&#9;&#9;c5.4-12.6,12.9-23.4,22.4-32.3c9.5-8.9,20.7-15.7,33.6-20.5c12.9-4.8,26.9-7.2,42.1-7.2c6.3,0,12.8,0.6,19.7,1.8&#xA;&#9;&#9;c6.8,1.2,13.4,3,19.7,5.5c6.3,2.5,12.2,5.6,17.7,9.3c5.5,3.7,10.2,8.1,14.1,13.3L586.7,127.1z" class="st0"/>
	<path d="M638,81.2h34.9v79.2h91.7V81.2h34.9v196h-34.9v-86.9h-91.7v86.9H638V81.2z" class="st0"/>
	<path d="M898.5,223.2h-66.5V195h66.5V223.2z" class="st0"/>
	<path d="M931.2,81.2h34.9v79.2h91.7V81.2h34.9v196h-34.9v-86.9h-91.7v86.9h-34.9V81.2z" class="st0"/>
</g>
<g>
	<path d="M15.7,35.3c-1.4,0-2.7-0.1-4-0.4s-2.6-0.6-3.8-1c-1.2-0.5-2.4-1-3.4-1.6c-1.1-0.6-2-1.3-2.9-2l6.8-7.4&#xA;&#9;&#9;c0.8,0.9,1.8,1.6,3.1,2.3s2.7,1,4,1c0.6,0,1.2-0.1,1.7-0.3c0.5-0.2,0.8-0.6,0.8-1.2c0-0.3-0.1-0.6-0.3-0.8&#xA;&#9;&#9;c-0.2-0.2-0.5-0.5-0.9-0.7c-0.4-0.2-1-0.5-1.8-0.8c-0.8-0.3-1.7-0.6-2.9-1c-1.1-0.4-2.2-0.8-3.3-1.3c-1-0.5-2-1.2-2.8-1.9&#xA;&#9;&#9;c-0.8-0.8-1.4-1.7-1.9-2.7S3.6,13,3.6,11.5c0-2.1,0.4-3.8,1.3-5.3c0.8-1.5,1.9-2.6,3.3-3.6c1.3-0.9,2.8-1.6,4.5-2S16,0,17.6,0&#xA;&#9;&#9;c2.2,0,4.4,0.4,6.7,1.3c2.3,0.9,4.3,2.1,6,3.7l-7,7.1c-0.8-0.9-1.7-1.7-2.8-2.1c-1.1-0.5-2.1-0.7-3-0.7c-0.8,0-1.5,0.1-2,0.4&#xA;&#9;&#9;c-0.5,0.2-0.8,0.6-0.8,1.2c0,0.5,0.3,0.9,0.8,1.1c0.5,0.3,1.4,0.6,2.5,0.9c1.2,0.4,2.5,0.8,3.8,1.3c1.3,0.5,2.5,1.2,3.7,2&#xA;&#9;&#9;c1.1,0.8,2,1.8,2.8,3c0.7,1.2,1.1,2.6,1.1,4.3c0,2-0.4,3.8-1.2,5.3c-0.8,1.5-1.9,2.7-3.2,3.7c-1.3,1-2.8,1.7-4.4,2.2&#xA;&#9;&#9;C19,35.1,17.4,35.3,15.7,35.3z" class="st0"/>
	<path d="M43.2,0.9h11.9l13,33.4H55.9l-1.7-4.9H43.5l-1.7,4.9H30L43.2,0.9z M49,12.6l-2.7,8.3h5.4L49,12.6z" class="st0"/>
	<path d="M80.5,15.5L81,34.4H70.5V0.9h14.7l6.1,18h0.2l5.2-18h15.2v33.4h-11l0.3-18.8l-0.3,0l-6.2,18.8h-7.9l-6.1-18.9&#xA;&#9;&#9;H80.5z" class="st0"/>
	<path d="M118.1,0.9h23v9.3h-12.4v2.9h11.7v8.7h-11.7V25h13.2v9.4h-23.8V0.9z" class="st0"/>
	<path d="M146.6,0.9h11.2l9.5,17h0.2l-0.5-17h10.7v33.4h-11.5l-9.3-16h-0.2l0.5,16h-10.7V0.9z" class="st0"/>
	<path d="M191,0.9h12.7l5.5,20.7h0.2l5.3-20.7h12.7l-12.1,33.4h-12.5L191,0.9z" class="st0"/>
	<path d="M227.7,17.5c0-2.7,0.5-5.1,1.4-7.2c0.9-2.2,2.2-4,3.9-5.5c1.7-1.5,3.6-2.7,5.9-3.5c2.3-0.8,4.7-1.2,7.4-1.2&#xA;&#9;&#9;c2.6,0,5.1,0.4,7.4,1.2c2.3,0.8,4.2,2,5.9,3.5c1.7,1.5,3,3.3,3.9,5.5c0.9,2.2,1.4,4.6,1.4,7.2s-0.5,5.1-1.4,7.3&#xA;&#9;&#9;c-0.9,2.2-2.3,4.1-3.9,5.6c-1.7,1.6-3.6,2.8-5.9,3.6c-2.3,0.9-4.7,1.3-7.4,1.3c-2.6,0-5.1-0.4-7.4-1.3c-2.3-0.8-4.2-2.1-5.9-3.6&#xA;&#9;&#9;s-3-3.4-3.9-5.6C228.2,22.6,227.7,20.1,227.7,17.5z M239.6,17.5c0,1.1,0.2,2.1,0.5,3c0.3,0.9,0.8,1.7,1.4,2.4&#xA;&#9;&#9;c0.6,0.7,1.3,1.2,2.1,1.5c0.8,0.4,1.7,0.5,2.6,0.5s1.8-0.2,2.6-0.5c0.8-0.4,1.5-0.9,2.1-1.5s1.1-1.4,1.4-2.4c0.3-0.9,0.5-1.9,0.5-3&#xA;&#9;&#9;c0-1.1-0.2-2.1-0.5-3c-0.3-0.9-0.8-1.7-1.4-2.3c-0.6-0.6-1.3-1.1-2.1-1.4c-0.8-0.3-1.7-0.5-2.6-0.5s-1.8,0.2-2.6,0.5&#xA;&#9;&#9;c-0.8,0.3-1.5,0.8-2.1,1.4c-0.6,0.6-1,1.4-1.4,2.3C239.8,15.4,239.6,16.4,239.6,17.5z" class="st0"/>
	<path d="M268.1,17.5c0-2.7,0.5-5.1,1.4-7.2c0.9-2.2,2.2-4,3.9-5.5c1.7-1.5,3.6-2.7,5.9-3.5c2.3-0.8,4.7-1.2,7.4-1.2&#xA;&#9;&#9;c2.6,0,5.1,0.4,7.4,1.2c2.3,0.8,4.2,2,5.9,3.5c1.7,1.5,3,3.3,3.9,5.5c0.9,2.2,1.4,4.6,1.4,7.2s-0.5,5.1-1.4,7.3&#xA;&#9;&#9;c-0.9,2.2-2.3,4.1-3.9,5.6c-1.7,1.6-3.6,2.8-5.9,3.6c-2.3,0.9-4.7,1.3-7.4,1.3c-2.6,0-5.1-0.4-7.4-1.3c-2.3-0.8-4.2-2.1-5.9-3.6&#xA;&#9;&#9;s-3-3.4-3.9-5.6C268.5,22.6,268.1,20.1,268.1,17.5z M280,17.5c0,1.1,0.2,2.1,0.5,3c0.3,0.9,0.8,1.7,1.4,2.4&#xA;&#9;&#9;c0.6,0.7,1.3,1.2,2.1,1.5c0.8,0.4,1.7,0.5,2.6,0.5c0.9,0,1.8-0.2,2.6-0.5c0.8-0.4,1.5-0.9,2.1-1.5s1.1-1.4,1.4-2.4&#xA;&#9;&#9;c0.3-0.9,0.5-1.9,0.5-3c0-1.1-0.2-2.1-0.5-3c-0.3-0.9-0.8-1.7-1.4-2.3c-0.6-0.6-1.3-1.1-2.1-1.4c-0.8-0.3-1.7-0.5-2.6-0.5&#xA;&#9;&#9;c-0.9,0-1.8,0.2-2.6,0.5c-0.8,0.3-1.5,0.8-2.1,1.4c-0.6,0.6-1,1.4-1.4,2.3C280.2,15.4,280,16.4,280,17.5z" class="st0"/>
	<path d="M310,0.9h14.4c1.6,0,3.3,0.2,4.9,0.5c1.6,0.3,3.1,0.9,4.3,1.7c1.3,0.8,2.3,2,3.1,3.4c0.8,1.4,1.2,3.2,1.2,5.3&#xA;&#9;&#9;c0,2-0.5,3.8-1.5,5.4c-1,1.6-2.4,2.8-4.3,3.6l8.5,13.6h-12.9l-6.4-11.9h-0.3v11.9H310V0.9z M320.8,15.1h2.2c0.4,0,0.8,0,1.2-0.1&#xA;&#9;&#9;c0.5-0.1,0.9-0.2,1.3-0.4c0.4-0.2,0.7-0.5,1-0.9c0.3-0.4,0.4-0.8,0.4-1.4c0-0.6-0.1-1.1-0.3-1.4c-0.2-0.3-0.5-0.6-0.8-0.8&#xA;&#9;&#9;c-0.3-0.2-0.7-0.3-1.1-0.3c-0.4,0-0.8-0.1-1.1-0.1h-2.7V15.1z" class="st0"/>
	<path d="M355.5,0.9h23v9.3H366v2.9h11.7v8.7H366V25h13.2v9.4h-23.8V0.9z" class="st0"/>
	<path d="M383.9,0.9h23v9.3h-12.4v2.9h11.7v8.7h-11.7V25h13.2v9.4h-23.8V0.9z" class="st0"/>
	<path d="M412.4,0.9h11.2l9.5,17h0.2l-0.5-17h10.7v33.4h-11.5l-9.3-16h-0.2l0.5,16h-10.7V0.9z" class="st0"/>
	<path d="M478.6,35.2c-2.6,0-5.1-0.4-7.3-1.2c-2.2-0.8-4.2-2-5.9-3.5c-1.7-1.5-3-3.4-3.9-5.5c-0.9-2.2-1.4-4.6-1.4-7.3&#xA;&#9;&#9;s0.5-5.1,1.4-7.3c0.9-2.2,2.2-4,3.9-5.6c1.6-1.5,3.6-2.7,5.8-3.6c2.2-0.8,4.6-1.3,7.1-1.3c2.6,0,5.1,0.4,7.4,1.3&#xA;&#9;&#9;c2.3,0.9,4.3,2,5.7,3.5l-6.6,7.9c-0.7-0.8-1.5-1.5-2.5-2c-0.9-0.5-2.1-0.7-3.5-0.7c-0.9,0-1.8,0.2-2.7,0.5&#xA;&#9;&#9;c-0.9,0.4-1.6,0.9-2.3,1.6c-0.7,0.7-1.2,1.5-1.6,2.4c-0.4,0.9-0.6,2-0.6,3.2c0,2.3,0.6,4.2,1.8,5.7c1.2,1.5,3.2,2.2,5.8,2.2&#xA;&#9;&#9;c0.5,0,1,0,1.5-0.1c0.5-0.1,0.9-0.2,1.2-0.4v-2.6h-5.4v-8.8h15.3V32c-0.8,0.5-1.7,0.9-2.7,1.3c-1,0.4-2.1,0.7-3.3,1&#xA;&#9;&#9;c-1.1,0.3-2.4,0.5-3.6,0.7C481.1,35.1,479.8,35.2,478.6,35.2z" class="st0"/>
	<path d="M497.6,0.9H512c1.6,0,3.3,0.2,4.9,0.5c1.6,0.3,3.1,0.9,4.3,1.7c1.3,0.8,2.3,2,3.1,3.4c0.8,1.4,1.2,3.2,1.2,5.3&#xA;&#9;&#9;c0,2-0.5,3.8-1.5,5.4c-1,1.6-2.4,2.8-4.3,3.6l8.5,13.6h-12.9l-6.4-11.9h-0.3v11.9h-10.9V0.9z M508.4,15.1h2.2c0.4,0,0.8,0,1.2-0.1&#xA;&#9;&#9;c0.5-0.1,0.9-0.2,1.3-0.4c0.4-0.2,0.7-0.5,1-0.9c0.3-0.4,0.4-0.8,0.4-1.4c0-0.6-0.1-1.1-0.3-1.4c-0.2-0.3-0.5-0.6-0.8-0.8&#xA;&#9;&#9;c-0.3-0.2-0.7-0.3-1.1-0.3c-0.4,0-0.8-0.1-1.1-0.1h-2.7V15.1z" class="st0"/>
	<path d="M529.8,17.5c0-2.7,0.5-5.1,1.4-7.2c0.9-2.2,2.2-4,3.9-5.5c1.7-1.5,3.6-2.7,5.9-3.5c2.3-0.8,4.7-1.2,7.4-1.2&#xA;&#9;&#9;c2.6,0,5.1,0.4,7.4,1.2s4.2,2,5.9,3.5c1.7,1.5,3,3.3,3.9,5.5c0.9,2.2,1.4,4.6,1.4,7.2s-0.5,5.1-1.4,7.3c-0.9,2.2-2.2,4.1-3.9,5.6&#xA;&#9;&#9;c-1.7,1.6-3.6,2.8-5.9,3.6c-2.3,0.9-4.7,1.3-7.4,1.3c-2.6,0-5.1-0.4-7.4-1.3c-2.3-0.8-4.2-2.1-5.9-3.6s-3-3.4-3.9-5.6&#xA;&#9;&#9;C530.2,22.6,529.8,20.1,529.8,17.5z M541.7,17.5c0,1.1,0.2,2.1,0.5,3c0.3,0.9,0.8,1.7,1.4,2.4c0.6,0.7,1.3,1.2,2.1,1.5&#xA;&#9;&#9;c0.8,0.4,1.7,0.5,2.6,0.5c0.9,0,1.8-0.2,2.6-0.5c0.8-0.4,1.5-0.9,2.1-1.5c0.6-0.7,1.1-1.4,1.4-2.4c0.3-0.9,0.5-1.9,0.5-3&#xA;&#9;&#9;c0-1.1-0.2-2.1-0.5-3c-0.3-0.9-0.8-1.7-1.4-2.3c-0.6-0.6-1.3-1.1-2.1-1.4c-0.8-0.3-1.7-0.5-2.6-0.5c-0.9,0-1.8,0.2-2.6,0.5&#xA;&#9;&#9;c-0.8,0.3-1.5,0.8-2.1,1.4c-0.6,0.6-1,1.4-1.4,2.3S541.7,16.4,541.7,17.5z" class="st0"/>
	<path d="M571.6,0.9h23v9.3h-12.4v2.9h11.7v8.7h-11.7V25h13.2v9.4h-23.8V0.9z" class="st0"/>
	<path d="M600.1,0.9h11.2l9.5,17h0.2l-0.5-17h10.7v33.4h-11.5l-9.3-16h-0.2l0.5,16h-10.7V0.9z" class="st0"/>
	<path d="M637.5,0.9h23v9.3H648v2.9h11.7v8.7H648V25h13.2v9.4h-23.8V0.9z" class="st0"/>
	<path d="M677.7,0.9h23v9.3h-12.4v2.9H700v8.7h-11.7V25h13.2v9.4h-23.8V0.9z" class="st0"/>
	<path d="M706.2,0.9h11.2l9.5,17h0.2l-0.5-17h10.7v33.4h-11.5l-9.3-16h-0.2l0.5,16h-10.7V0.9z" class="st0"/>
	<path d="M772.1,34.4h-11.3l-9.1-33.4h11.9l3.6,18.8h0.2l3.9-18.8H783l4.2,18.8h0.2L791,0.9h11.5l-9.3,33.4h-11.3&#xA;&#9;&#9;l-4.7-18.9H777L772.1,34.4z" class="st0"/>
	<path d="M814.4,0.9h11.9l13,33.4h-12.2l-1.7-4.9h-10.6l-1.7,4.9h-11.9L814.4,0.9z M820.2,12.6l-2.7,8.3h5.4L820.2,12.6&#xA;&#9;&#9;z" class="st0"/>
	<path d="M841.7,0.9h14.4c1.6,0,3.3,0.2,4.9,0.5c1.6,0.3,3.1,0.9,4.3,1.7s2.3,2,3.1,3.4c0.8,1.4,1.2,3.2,1.2,5.3&#xA;&#9;&#9;c0,2-0.5,3.8-1.5,5.4s-2.4,2.8-4.3,3.6l8.5,13.6h-12.9L853,22.4h-0.3v11.9h-10.9V0.9z M852.6,15.1h2.2c0.4,0,0.8,0,1.2-0.1&#xA;&#9;&#9;c0.5-0.1,0.9-0.2,1.3-0.4c0.4-0.2,0.7-0.5,1-0.9c0.3-0.4,0.4-0.8,0.4-1.4c0-0.6-0.1-1.1-0.3-1.4c-0.2-0.3-0.5-0.6-0.8-0.8&#xA;&#9;&#9;c-0.3-0.2-0.7-0.3-1.1-0.3c-0.4,0-0.8-0.1-1.1-0.1h-2.7V15.1z" class="st0"/>
	<path d="M885.4,15.5l0.5,18.9h-10.5V0.9h14.7l6.1,18h0.2l5.2-18h15.2v33.4h-11l0.3-18.8l-0.3,0l-6.2,18.8h-7.9&#xA;&#9;&#9;l-6.1-18.9H885.4z" class="st0"/>
	<path d="M923,0.9h23v9.3h-12.4v2.9h11.7v8.7h-11.7V25h13.2v9.4H923V0.9z" class="st0"/>
	<path d="M980.1,34.4h-11.3l-9.1-33.4h11.9l3.6,18.8h0.2l3.9-18.8h11.8l4.2,18.8h0.2L999,0.9h11.5l-9.3,33.4h-11.3&#xA;&#9;&#9;l-4.7-18.9H985L980.1,34.4z" class="st0"/>
	<path d="M1013.6,0.9h11.3v33.4h-11.3V0.9z" class="st0"/>
	<path d="M1039.8,35.3c-1.5,0-2.9-0.2-4.3-0.7c-1.4-0.4-2.6-1-3.7-1.8c-1.1-0.8-2-1.7-2.8-2.7c-0.8-1-1.3-2.2-1.7-3.4&#xA;&#9;&#9;l9.6-3.7c0.1,0.5,0.4,1,0.7,1.3c0.3,0.4,0.8,0.6,1.3,0.6c0.7,0,1.2-0.2,1.5-0.7c0.3-0.5,0.4-1.1,0.4-1.9V0.9h11.3V22&#xA;&#9;&#9;c0,1.5-0.2,3.1-0.5,4.6c-0.3,1.6-1,3-1.9,4.3c-0.9,1.3-2.2,2.3-3.8,3.2C1044.4,34.9,1042.3,35.3,1039.8,35.3z" class="st0"/>
	<path d="M1069.2,21.1L1069.2,21.1l-0.1,13.3h-10.9V0.9h10.9v12.3h0.1l8.9-12.3h13.2l-12.6,15.3l13.2,18.1h-13.8&#xA;&#9;&#9;L1069.2,21.1z" class="st0"/>
</g>
</svg>