<svg xmlns="http://www.w3.org/2000/svg" viewBox="0 -256 1850 1850"><path d="M128-128h288v288H128v-288zm352 0h320v288H480v-288zM128 224h288v320H128V224zm352 0h320v320H480V224zM128 608h288v288H128V608zm736-736h320v288H864v-288zM480 608h320v288H480V608zm768-736h288v288h-288v-288zM864 224h320v320H864V224zm-352 864v288q0 13-9.5 22.5T480 1408h-64q-13 0-22.5-9.5T384 1376v-288q0-13 9.5-22.5t22.5-9.5h64q13 0 22.5 9.5t9.5 22.5zm736-864h288v320h-288V224zM864 608h320v288H864V608zm384 0h288v288h-288V608zm32 480v288q0 13-9.5 22.5t-22.5 9.5h-64q-13 0-22.5-9.5t-9.5-22.5v-288q0-13 9.5-22.5t22.5-9.5h64q13 0 22.5 9.5t9.5 22.5zm384 64V-128q0-52-38-90t-90-38H128q-52 0-90 38T0-128v1280q0 52 38 90t90 38h128v96q0 66 47 113t113 47h64q66 0 113-47t47-113v-96h384v96q0 66 47 113t113 47h64q66 0 113-47t47-113v-96h128q52 0 90-38t38-90z" style="fill:currentColor" transform="matrix(1 0 0 -1 91.1 1297.9)"/></svg>